<svg width="1140" height="820" viewBox="0 0 1140 820" fill="none" xmlns="http://www.w3.org/2000/svg">
<g filter="url(#filter0_i_295_677)">
<rect width="1140" height="820" fill="#9263D5"/>
</g>
<rect x="171.379" y="245.793" width="191.262" height="65.063" rx="10" fill="#E8D41A"/>
<rect x="374.003" y="245.793" width="190.316" height="65.063" rx="10" fill="#E8D41A"/>
<rect x="575.681" y="245.793" width="191.262" height="65.063" rx="10" fill="#E8D41A"/>
<rect x="778.306" y="245.793" width="190.316" height="65.063" rx="10" fill="#E8D41A"/>
<rect x="778.306" y="171.436" width="190.316" height="64.0302" rx="10" fill="#E8D41A"/>
<rect x="778.306" y="97.0781" width="190.316" height="64.0302" rx="10" fill="#E8D41A"/>
<rect x="575.681" y="171.436" width="191.262" height="64.0302" rx="10" fill="#E8D41A"/>
<rect x="575.681" y="97.0781" width="191.262" height="64.0302" rx="10" fill="#E8D41A"/>
<rect x="374.003" y="171.436" width="190.316" height="64.0302" rx="10" fill="#E8D41A"/>
<rect x="374.003" y="97.0781" width="190.316" height="64.0302" rx="10" fill="#E8D41A"/>
<rect x="171.379" y="171.436" width="191.262" height="64.0302" rx="10" fill="#E8D41A"/>
<rect x="171.379" y="97.0781" width="191.262" height="64.0302" rx="10" fill="#E8D41A"/>
<rect x="353.173" y="712.844" width="434.999" height="75.1406" rx="10" fill="#E8D41A"/>
<rect width="97.2004" height="82.3056" transform="matrix(-0.147897 -0.989003 0.984541 -0.175156 505.579 695.744)" fill="url(#paint0_linear_295_677)"/>
<g filter="url(#filter1_i_295_677)">
<rect width="93.9675" height="85.3466" rx="10" transform="matrix(-0.779547 -0.60395 0.563193 -0.842832 546.334 653.182)" fill="#E8D41A"/>
</g>
<defs>
<filter id="filter0_i_295_677" x="0" y="0" width="1140" height="824" filterUnits="userSpaceOnUse" color-interpolation-filters="sRGB">
<feFlood flood-opacity="0" result="BackgroundImageFix"/>
<feBlend mode="normal" in="SourceGraphic" in2="BackgroundImageFix" result="shape"/>
<feColorMatrix in="SourceAlpha" type="matrix" values="0 0 0 0 0 0 0 0 0 0 0 0 0 0 0 0 0 0 127 0" result="hardAlpha"/>
<feOffset dy="4"/>
<feGaussianBlur stdDeviation="125"/>
<feComposite in2="hardAlpha" operator="arithmetic" k2="-1" k3="1"/>
<feColorMatrix type="matrix" values="0 0 0 0 0.388235 0 0 0 0 0.4 0 0 0 0 0.945098 0 0 0 0.05 0"/>
<feBlend mode="normal" in2="shape" result="effect1_innerShadow_295_677"/>
</filter>
<filter id="filter1_i_295_677" x="476.892" y="528.596" width="113.699" height="124.488" filterUnits="userSpaceOnUse" color-interpolation-filters="sRGB">
<feFlood flood-opacity="0" result="BackgroundImageFix"/>
<feBlend mode="normal" in="SourceGraphic" in2="BackgroundImageFix" result="shape"/>
<feColorMatrix in="SourceAlpha" type="matrix" values="0 0 0 0 0 0 0 0 0 0 0 0 0 0 0 0 0 0 127 0" result="hardAlpha"/>
<feOffset dy="4"/>
<feGaussianBlur stdDeviation="50"/>
<feComposite in2="hardAlpha" operator="arithmetic" k2="-1" k3="1"/>
<feColorMatrix type="matrix" values="0 0 0 0 0 0 0 0 0 0 0 0 0 0 0 0 0 0 0.05 0"/>
<feBlend mode="normal" in2="shape" result="effect1_innerShadow_295_677"/>
</filter>
<linearGradient id="paint0_linear_295_677" x1="97.2004" y1="43.4181" x2="0.00914838" y2="40.8116" gradientUnits="userSpaceOnUse">
<stop stop-color="#E8D41A"/>
<stop offset="1" stop-color="#E8D41A" stop-opacity="0"/>
</linearGradient>
</defs>
</svg>
