<svg width="608" height="652" viewBox="0 0 608 652" fill="none" xmlns="http://www.w3.org/2000/svg">
<g filter="url(#filter0_i_295_857)">
<rect width="608" height="652" fill="#359ECA"/>
</g>
<rect x="26" y="477.232" width="212.357" height="116.26" rx="8" fill="#9263D5"/>
<rect x="180.907" y="184.535" width="214.409" height="115.612" rx="8" fill="#FBB404"/>
<rect x="94.7334" y="59" width="300.582" height="114.75" rx="8" fill="#9263D5"/>
<rect x="402.497" y="184.319" width="178.503" height="116.26" rx="8" fill="#9263D5"/>
<rect x="245.537" y="306.618" width="84.122" height="286.874" rx="8" fill="#E8D41A"/>
<rect x="336.842" y="311.147" width="121.054" height="152.496" rx="8" fill="#9263D5"/>
<path fill-rule="evenodd" clip-rule="evenodd" d="M36 203.024C30.4772 203.024 26 207.501 26 213.024V362.855V374.7V456.664C26 462.187 30.4771 466.664 36 466.664H228.357C233.88 466.664 238.357 462.187 238.357 456.664V362.855C238.357 357.332 233.88 352.855 228.357 352.855H135.637C131.219 352.855 127.637 349.273 127.637 344.855V213.024C127.637 207.501 123.16 203.024 117.637 203.024H36Z" fill="#F16A28"/>
<path fill-rule="evenodd" clip-rule="evenodd" d="M571.001 311.147C576.524 311.147 581.001 315.624 581.001 321.147V484.212V494.41V583.492C581.001 589.014 576.524 593.492 571.001 593.492H345.816C340.293 593.492 335.816 589.015 335.816 583.492V484.212C335.816 478.69 340.293 474.212 345.816 474.212H457.077C461.495 474.212 465.077 470.631 465.077 466.212V321.147C465.077 315.624 469.554 311.147 475.077 311.147H571.001Z" fill="#FBB404"/>
<defs>
<filter id="filter0_i_295_857" x="0" y="0" width="608" height="656" filterUnits="userSpaceOnUse" color-interpolation-filters="sRGB">
<feFlood flood-opacity="0" result="BackgroundImageFix"/>
<feBlend mode="normal" in="SourceGraphic" in2="BackgroundImageFix" result="shape"/>
<feColorMatrix in="SourceAlpha" type="matrix" values="0 0 0 0 0 0 0 0 0 0 0 0 0 0 0 0 0 0 127 0" result="hardAlpha"/>
<feOffset dy="4"/>
<feGaussianBlur stdDeviation="125"/>
<feComposite in2="hardAlpha" operator="arithmetic" k2="-1" k3="1"/>
<feColorMatrix type="matrix" values="0 0 0 0 0.388235 0 0 0 0 0.4 0 0 0 0 0.945098 0 0 0 0.05 0"/>
<feBlend mode="normal" in2="shape" result="effect1_innerShadow_295_857"/>
</filter>
</defs>
</svg>
